<svg id="home_icon4" xmlns="http://www.w3.org/2000/svg" width="63.516" height="63.516" viewBox="0 0 63.516 63.516"><path id="Path_138" data-name="Path 138" d="M382.912 87.86a1.238 1.238 0 1 0-.879-.363 1.249 1.249 0 0 0 .879.363zm0 0" transform="translate(-334.323 -74.787)" fill="#c7c7c7"/><path id="Path_139" data-name="Path 139" d="M62.859 23.931l-10.172-5.425a1.241 1.241 0 0 0-1.824 1.094v3.357l-8.349-4.452A1.241 1.241 0 0 0 40.69 19.6v3.357l-8.349-4.452a1.241 1.241 0 0 0-1.823 1.095v13.647h-19.1V19.6a1.24 1.24 0 0 0-1.241-1.241H8.394V16.6a.539.539 0 0 1 .538-.538 1.241 1.241 0 1 0 0-2.481 3.023 3.023 0 0 0-3.02 3.019v1.76h-2.19v-5.835A4.29 4.29 0 0 1 8.006 8.24h2a4.793 4.793 0 0 0-.116 1.039 4.745 4.745 0 0 0 4.739 4.739h4.684a1.241 1.241 0 0 0 0-2.481h-4.68a2.261 2.261 0 0 1-2.258-2.258 2.383 2.383 0 0 1 .713-1.689 2.211 2.211 0 0 1 1.59-.645 2.241 2.241 0 0 1 .936.222 1.24 1.24 0 0 0 1.7-.672 6.259 6.259 0 0 1 11.675-.026 6.1 6.1 0 0 0-2.41 2.4 1.24 1.24 0 1 0 2.171 1.2 3.644 3.644 0 0 1 6.835 1.759 1.24 1.24 0 0 0 1.241 1.241h6.764a1.241 1.241 0 0 0 0-2.481h-5.652a6.135 6.135 0 0 0-6-4.884q-.29 0-.577.027a8.739 8.739 0 0 0-15.871-1.2 4.771 4.771 0 0 0-.765-.076 4.649 4.649 0 0 0-3.311 1.294H8.006a6.774 6.774 0 0 0-6.766 6.766v5.845A1.24 1.24 0 0 0 0 19.6v42.676a1.24 1.24 0 0 0 1.241 1.241h61.035a1.24 1.24 0 0 0 1.241-1.241V25.025a1.24 1.24 0 0 0-.658-1.094zM2.481 25.8h6.451v30.273H2.481zm6.451-2.481H2.481v-2.478h6.451zM2.481 58.554h6.451v2.481H2.481zm29.277 2.481H11.413V40.69h11.165a1.241 1.241 0 1 0 0-2.481H11.413v-2.481H48.63v25.307zm29.277 0h-9.924V34.487a1.24 1.24 0 0 0-1.241-1.241H33V21.668l8.349 4.452a1.241 1.241 0 0 0 1.824-1.095v-3.357l8.349 4.451a1.24 1.24 0 0 0 1.824-1.095v-3.356l7.691 4.1zm0 0" fill="#c7c7c7"/><path id="Path_140" data-name="Path 140" d="M119.2 356h-5.955a1.24 1.24 0 0 0-1.245 1.241v5.959a1.24 1.24 0 0 0 1.241 1.241h5.959a1.24 1.24 0 0 0 1.241-1.241v-5.955A1.24 1.24 0 0 0 119.2 356zm-1.241 5.955h-3.474v-3.474h3.474zm0 0" transform="translate(-98.106 -311.836)" fill="#c7c7c7"/><path id="Path_141" data-name="Path 141" d="M215.2 356h-5.955a1.24 1.24 0 0 0-1.245 1.241v5.959a1.24 1.24 0 0 0 1.241 1.241h5.959a1.24 1.24 0 0 0 1.241-1.241v-5.955A1.24 1.24 0 0 0 215.2 356zm-1.241 5.955h-3.474v-3.474h3.474zm0 0" transform="translate(-182.197 -311.836)" fill="#c7c7c7"/><path id="Path_142" data-name="Path 142" d="M311.2 356h-5.955a1.24 1.24 0 0 0-1.245 1.241v5.959a1.24 1.24 0 0 0 1.241 1.241h5.959a1.24 1.24 0 0 0 1.241-1.241v-5.955A1.24 1.24 0 0 0 311.2 356zm-1.241 5.955h-3.474v-3.474h3.474zm0 0" transform="translate(-266.287 -311.836)" fill="#c7c7c7"/><path id="Path_143" data-name="Path 143" d="M210.412 310.481a1.241 1.241 0 1 0-.877-.363 1.249 1.249 0 0 0 .877.363zm0 0" transform="translate(-183.223 -269.791)" fill="#c7c7c7"/></svg>