<svg xmlns="http://www.w3.org/2000/svg" xmlns:xlink="http://www.w3.org/1999/xlink" width="15" height="9" viewBox="0 0 15 9"><defs><path id="ow67a" d="M421.474 3354.81c1.707 0 3.1-1.389 3.1-3.097 0-.675-.222-1.297-.587-1.806a3.094 3.094 0 0 0-2.511-1.292 3.097 3.097 0 0 0-2.513 1.292 3.083 3.083 0 0 0-.586 1.805 3.1 3.1 0 0 0 3.097 3.099z"/><path id="ow67b" d="M428.239 3347.923v-2.983l-.388.001-2.596.008.01 2.984z"/><path id="ow67c" d="M430.275 3349.907v7.206a3.405 3.405 0 0 1-3.401 3.402h-10.799a3.405 3.405 0 0 1-3.401-3.402v-10.799a3.405 3.405 0 0 1 3.401-3.401h10.798a3.405 3.405 0 0 1 3.402 3.401zm-8.8-13.669c-8.533 0-15.475 6.942-15.475 15.475 0 8.532 6.942 15.475 15.475 15.475 8.532 0 15.474-6.943 15.474-15.475 0-8.533-6.941-15.475-15.474-15.475z"/><path id="ow67d" d="M426.289 3351.713a4.82 4.82 0 0 1-4.814 4.814 4.82 4.82 0 0 1-4.814-4.814c0-.638.127-1.249.354-1.806h-2.627v7.206c0 .931.756 1.685 1.687 1.685h10.798c.929 0 1.686-.754 1.686-1.685v-7.206h-2.628c.229.557.358 1.168.358 1.806z"/></defs><g><g transform="translate(-414 -3350)"><g><use fill="#606060" xlink:href="#ow67a"/></g><g><use fill="#606060" xlink:href="#ow67b"/></g><g><use fill="#606060" xlink:href="#ow67c"/></g><g><use fill="#606060" xlink:href="#ow67d"/></g></g></g></svg>