<svg xmlns="http://www.w3.org/2000/svg" xmlns:xlink="http://www.w3.org/1999/xlink" width="1499" height="61" viewBox="0 0 1499 61"><defs><path id="hiila" d="M1496.836 53.396c1.655 0 2.996-1.63 2.996-3.64 0-2.01-.44-3.638-2.996-3.638-2.555 0-2.996 1.629-2.996 3.639s1.342 3.64 2.996 3.64z"/><path id="hiilb" d="M1502.489 58.806c-.056-3.501-.513-4.5-4.012-5.13 0 0-.493.627-1.64.627-1.149 0-1.642-.628-1.642-.628-3.46.625-3.946 1.608-4.01 5.017-.005.278-.007.293-.008.26v.369s.834 1.679 5.66 1.679c4.825 0 5.658-1.68 5.658-1.68v-.272c0 .02-.003-.018-.006-.242z"/></defs><use fill="#fff" xlink:href="#hiila" transform="translate(-4)"/><use fill="#fff" xlink:href="#hiilb" transform="translate(-4)"/></svg>