<svg xmlns="http://www.w3.org/2000/svg" xmlns:xlink="http://www.w3.org/1999/xlink" width="23" height="32" viewBox="0 0 23 32"><defs><path id="oncqa" d="M501.432 3320.183a5.758 5.758 0 0 1-5.752-5.751 5.758 5.758 0 0 1 5.752-5.752 5.758 5.758 0 0 1 5.751 5.752 5.758 5.758 0 0 1-5.751 5.751zm0-17.183c-6.304 0-11.432 5.128-11.432 11.432 0 7.822 10.23 19.306 10.666 19.792a1.03 1.03 0 0 0 1.532 0c.435-.486 10.665-11.97 10.665-19.792 0-6.304-5.128-11.432-11.431-11.432z"/></defs><use fill="#13a34d" xlink:href="#oncqa" transform="translate(-490 -3303)"/></svg>