<svg xmlns="http://www.w3.org/2000/svg" xmlns:xlink="http://www.w3.org/1999/xlink" width="39" height="39" viewBox="0 0 39 39"><defs><path id="20yxa" d="M1053.777 1749.57l-13.596 7.998a1.53 1.53 0 0 1-.8.225c-.266 0-.533-.067-.8-.2-.532-.316-.8-.783-.8-1.4V1740.2c0-.617.268-1.083.8-1.4.55-.3 1.083-.292 1.6.025l13.596 7.998c.533.3.8.758.8 1.374 0 .617-.267 1.074-.8 1.374zm7.024-11.009a19.114 19.114 0 0 0-6.986-6.985c-2.941-1.716-6.152-2.574-9.635-2.574-3.482 0-6.693.858-9.634 2.574a19.109 19.109 0 0 0-6.986 6.985c-1.717 2.941-2.575 6.153-2.575 9.635s.859 6.694 2.575 9.635a19.118 19.118 0 0 0 6.985 6.985c2.941 1.717 6.153 2.575 9.635 2.575s6.694-.858 9.635-2.575a19.109 19.109 0 0 0 6.985-6.985c1.716-2.941 2.574-6.153 2.574-9.635s-.858-6.694-2.573-9.635z"/></defs><use fill="#f5da09" xlink:href="#20yxa" transform="translate(-1025 -1729)"/></svg>