<svg aria-hidden="true" style="position:absolute;width:0;height:0" xmlns="http://www.w3.org/2000/svg" overflow="hidden"><defs><symbol id="icon-home_icon4" viewBox="0 0 32 32"><path fill="var(--color1, #c7c7c7)" d="M24.48 6.586a.624.624 0 1 0-.443-.183c.114.113.27.183.443.183zm7.189 5.471l-5.125-2.733a.625.625 0 0 0-.919.551v1.691l-4.206-2.243a.625.625 0 0 0-.919.552v1.691l-4.206-2.243a.625.625 0 0 0-.918.552v6.876H5.753V9.875a.625.625 0 0 0-.625-.625h-.899v-.886a.27.27 0 0 1 .271-.271h.018a.625.625 0 0 0 0-1.25h-.019.001c-.84.001-1.52.681-1.522 1.521v.887H1.875v-2.94a2.161 2.161 0 0 1 2.158-2.159h1.008A2.391 2.391 0 0 0 7.37 7.063h2.36a.625.625 0 0 0 0-1.25H7.371a1.14 1.14 0 0 1-1.138-1.138c.002-.333.139-.634.359-.851.201-.201.479-.325.786-.325h.015-.001c.172.003.334.044.478.115l-.007-.003a.625.625 0 0 0 .855-.334l.001-.004a3.16 3.16 0 0 1 2.944-2.022c1.33 0 2.467.823 2.931 1.988l.007.021a3.097 3.097 0 0 0-1.206 1.194l-.008.015a.625.625 0 0 0 1.092.608l.002-.003a1.836 1.836 0 0 1 3.444.887c0 .345.28.625.625.625h3.409a.625.625 0 0 0 0-1.25H19.11a3.097 3.097 0 0 0-3.023-2.461q-.146 0-.291.014c-.635-1.701-2.246-2.891-4.135-2.891a4.402 4.402 0 0 0-3.849 2.264l-.011.022a2.238 2.238 0 0 0-.383-.038H7.37c-.63 0-1.202.249-1.623.653l.001-.001H4.031A3.413 3.413 0 0 0 .622 6.307v2.945a.625.625 0 0 0-.625.625v21.501c0 .345.28.625.625.625h30.751c.345 0 .625-.28.625-.625V12.61a.625.625 0 0 0-.328-.55l-.003-.002zm-30.419.941H4.5V28.25H1.25zm3.25-1.25H1.25V10.5H4.5zM1.25 29.5H4.5v1.25H1.25zM16 30.75H5.75V20.5h5.643a.625.625 0 0 0 0-1.25h-.019.001H5.75V18H24.5v12.75zm14.75 0h-5V17.375a.625.625 0 0 0-.625-.625h-8.5v-5.833l4.206 2.243a.625.625 0 0 0 .919-.552v-1.691l4.206 2.242a.625.625 0 0 0 .919-.551v-1.692l3.875 2.066z"/><path fill="var(--color1, #c7c7c7)" d="M10.627 22.25H7.624a.625.625 0 0 0-.625.625v3.003c0 .345.28.625.625.625h3.004c.345 0 .625-.28.625-.625v-3.004a.625.625 0 0 0-.625-.625h-.001zm-.625 3h-1.75V23.5h1.75zm6.625-3h-3.003a.625.625 0 0 0-.625.625v3.003c0 .345.28.625.625.625h3.003c.345 0 .625-.28.625-.625v-3.004a.625.625 0 0 0-.625-.625h-.001zm-.625 3h-1.75V23.5h1.75zm6.626-3h-3.003a.625.625 0 0 0-.625.625v3.003c0 .345.28.625.625.625h3.003c.345 0 .625-.28.625-.625v-3.004a.625.625 0 0 0-.625-.625h-.001zm-.626 3h-1.75V23.5h1.75zm-8.304-4.75a.625.625 0 1 0-.442-.183.627.627 0 0 0 .442.183z"/></symbol><symbol id="icon-home_icon3" viewBox="0 0 32 32"><path fill="var(--color2, #c0c0c0)" opacity=".672" d="M5.32 27.433h19.897v6.208H5.32zM9.531 7.425h7.262v8.315H9.531zM-2.051 4.267H9.422v15.686H-2.051z"/><path fill="var(--color2, #c0c0c0)" opacity=".672" d="M23.22 20.062h7.262v8.315H23.22zm-25.271-3.159h9.367v16.738h-9.367z"/><path fill="var(--color2, #c0c0c0)" opacity=".672" d="M1.108 13.744H8.37v8.315H1.108zM23.22 7.425h7.262v8.315H23.22z"/><path fill="var(--color2, #c0c0c0)" opacity=".672" d="M1.108 7.425H8.37v8.315H1.108zm13.689 0h7.261v8.315h-7.261zm7.371-3.158h11.474v29.375H22.168z"/><path fill="var(--color2, #c0c0c0)" opacity=".672" d="M14.797 1.108h7.261v8.315h-7.261zm0 12.636h7.261v8.315h-7.261z"/><path fill="var(--color2, #c0c0c0)" opacity=".672" d="M9.531 1.108h7.262v8.315H9.531zm3.686 22.119h5.156v5.149h-5.156zm-3.686-9.483h7.262v8.315H9.531z"/><path fill="var(--color2, #c0c0c0)" opacity=".672" d="M8.479 20.062h14.632v10.42H8.479zm14.741-6.318h7.262v8.315H23.22z"/><path fill="var(--color2, #c0c0c0)" opacity=".672" d="M6.373-2.051h18.845v32.533H6.373z"/></symbol><symbol id="icon-home_icon2" viewBox="0 0 32 32"><path fill="var(--color1, #c7c7c7)" opacity=".672" d="M9.655 13.714h7.356v8.367H9.655z"/><path fill="var(--color1, #c7c7c7)" opacity=".672" d="M9.655 7.398h7.356v8.367H9.655z"/><path fill="var(--color1, #c7c7c7)" opacity=".672" d="M5.389-2.078h21.224v14.157H5.389zM1.122 13.714h7.356v8.367H1.122z"/><path fill="var(--color1, #c7c7c7)" opacity=".672" d="M6.455 8.977h5.223v20.475H6.455z"/><path fill="var(--color1, #c7c7c7)" opacity=".672" d="M4.322 20.031h23.357v11.526H4.322z"/><path fill="var(--color1, #c7c7c7)" opacity=".672" d="M23.522 20.558h7.356v8.367h-7.356z"/><path fill="var(--color1, #c7c7c7)" opacity=".672" d="M23.522 14.241h7.356v8.367h-7.356zM2.189 28.454h27.622v5.209H2.189z"/><path fill="var(--color1, #c7c7c7)" opacity=".672" d="M22.456 9.503h11.623v24.159H22.456zm-7.467 4.211h7.355v8.367h-7.355zm-17.067 3.159h9.489v16.79h-9.489z"/><path fill="var(--color1, #c7c7c7)" opacity=".672" d="M20.322 8.45h5.223v21.001h-5.223z"/><path fill="var(--color1, #c7c7c7)" opacity=".672" d="M14.989 7.398h7.355v8.367h-7.355zM-2.078 9.503H9.545v10.999H-2.078z"/></symbol><symbol id="icon-home_icon1" viewBox="0 0 33 32"><path fill="var(--color3, #13a34d)" d="M5.54 11.77h11.948v9.755H5.54z"/><path fill="var(--color3, #13a34d)" d="M5.54 19.446h11.948v10.852H5.54z"/><path fill="var(--color3, #13a34d)" d="M15.409 11.77h11.948v9.755H15.409z"/><path fill="var(--color3, #13a34d)" d="M-2.136-2.136h37.169v36.272H-2.136z"/></symbol></defs></svg>