<svg xmlns="http://www.w3.org/2000/svg" xmlns:xlink="http://www.w3.org/1999/xlink" width="32" height="32" viewBox="0 0 32 32"><defs><path id="ldf3a" d="M418.385 3320.785l7.05-3.655-7.05-3.678v7.333z"/><path id="ldf3b" d="M431.945 3322.585c-.271 1.179-1.236 2.048-2.397 2.178-2.749.307-5.531.309-8.303.307-2.77.002-5.554 0-8.304-.307-1.16-.13-2.124-1-2.396-2.178-.386-1.68-.386-3.513-.386-5.242s.004-3.562.391-5.242c.271-1.179 1.235-2.049 2.396-2.179 2.75-.307 5.533-.308 8.304-.307 2.77-.001 5.553 0 8.302.307 1.162.13 2.126 1 2.398 2.18.386 1.679.383 3.512.383 5.241 0 1.729-.001 3.562-.388 5.242zm-10.699-20.945c-8.672 0-15.703 7.03-15.703 15.703 0 8.673 7.03 15.703 15.703 15.703 8.672 0 15.703-7.03 15.703-15.703 0-8.673-7.03-15.703-15.703-15.703z"/></defs><g><g transform="translate(-405 -3301)"><g><use fill="#606060" xlink:href="#ldf3a"/></g><g><use fill="#606060" xlink:href="#ldf3b"/></g></g></g></svg>