<svg xmlns="http://www.w3.org/2000/svg" xmlns:xlink="http://www.w3.org/1999/xlink" width="31" height="31" viewBox="0 0 31 31"><defs><path id="levwa" d="M484.188 803.022c-7.077 0-12.835-5.757-12.835-12.835 0-7.077 5.758-12.834 12.835-12.834 7.076 0 12.834 5.757 12.834 12.835 0 7.077-5.757 12.834-12.835 12.834zm0-28.022c-8.375 0-15.188 6.813-15.188 15.188 0 8.374 6.813 15.187 15.188 15.187 8.374 0 15.187-6.814 15.187-15.188 0-8.373-6.813-15.187-15.188-15.187z"/><path id="levwb" d="M490.07 788.905h-4.706V784.2a1.176 1.176 0 1 0-2.353 0v4.705h-4.706a1.176 1.176 0 1 0 0 2.353h4.706v4.706a1.176 1.176 0 1 0 2.353 0v-4.706h4.706a1.176 1.176 0 1 0 0-2.353z"/></defs><g><g transform="translate(-469 -775)"><g><g><g><use fill="#13a34d" xlink:href="#levwa"/></g></g></g><g><g><g><use fill="#13a34d" xlink:href="#levwb"/></g></g></g></g></g></svg>