<svg xmlns="http://www.w3.org/2000/svg" xmlns:xlink="http://www.w3.org/1999/xlink" width="17" height="17" viewBox="0 0 17 17"><defs><path id="q81wa" d="M762.931 1245.276l-1.94-1.774a.531.531 0 0 0-.72 0l-1.973 1.803v3.254c0 .288.234.522.521.522h3.591a.522.522 0 0 0 .521-.522zm2.261 1.201a.638.638 0 0 1-.903.04l-.08-.073v2.115c0 .993-.807 1.8-1.799 1.8h-3.591a1.802 1.802 0 0 1-1.8-1.8v-2.085l-.047.044a.64.64 0 0 1-.863-.944l3.299-3.015a1.803 1.803 0 0 1 2.445 0l3.299 3.015a.64.64 0 0 1 .04.903zm-6.031-8.643h-6.327v1.278h6.327zm.639 2.556h-7.605a.639.639 0 0 1-.639-.639v-2.556c0-.353.286-.639.64-.639h7.604c.353 0 .639.286.639.64v2.555a.639.639 0 0 1-.64.64zm-4.442 6.774a.639.639 0 1 1-1.278 0 .639.639 0 0 1 1.278 0zm-2.524 0a.639.639 0 1 1-1.278 0 .639.639 0 0 1 1.278 0zm1.917-1.79a.639.639 0 1 1 0-1.277.639.639 0 0 1 0 1.278zm-2.556 0a.639.639 0 1 1 0-1.277c.353 0 .671.286.671.639 0 .353-.318.639-.67.639zm5.08-3.706a.639.639 0 1 1 0 1.278.639.639 0 0 1 0-1.278zm-2.524 1.279a.639.639 0 1 1 0-1.278.639.639 0 0 1 0 1.278zm-2.556 0a.639.639 0 1 1 0-1.279c.353 0 .674.287.674.64 0 .352-.32.639-.674.639zm3.834 6.773a.639.639 0 0 1-.639.64h-3.834a2.559 2.559 0 0 1-2.556-2.557v-11.247a2.559 2.559 0 0 1 2.556-2.556h8.883a2.559 2.559 0 0 1 2.556 2.556v4.25a.639.639 0 1 1-1.278 0v-4.25a1.28 1.28 0 0 0-1.278-1.278h-8.883a1.28 1.28 0 0 0-1.278 1.278v11.247a1.28 1.28 0 0 0 1.278 1.278h3.834c.353 0 .64.286.64.64z"/></defs><g><g transform="translate(-749 -1234)"><use fill="#c7c7c7" xlink:href="#q81wa"/></g></g></svg>