<svg xmlns="http://www.w3.org/2000/svg" xmlns:xlink="http://www.w3.org/1999/xlink" width="113" height="50" viewBox="0 0 113 50"><defs><path id="seeha" d="M1372.55 1304.14c1.666 0 3.795-1.643 4.756-3.669l7.393-15.593c.956-2.032-.218-3.67-2.632-3.67h-23.205c-.371 0-2.632.399-3.276 1.376-2.015 3.063-4.357 10.09-5.733 10.09h-25.935c-2.414 0-7.399 10.32-5.733 10.32.546.764 1 1.147 1.365 1.147h53zm-76.064-31.668c-1.67 0-3.8 1.955-4.76 4.368l-7.394 18.565c-.955 2.413.219 4.368 2.632 4.368h23.205c.372 0 2.632-.475 3.276-1.638 2.015-3.648 4.357-12.013 5.733-12.013h25.936c2.413 0 6.59-12.012 6.59-12.83 0-.82-.546-.82-1.092-.82zm64.227-6.006c1.274.364 1.765.825 1.474 1.382-.757 1.416-1.772 3.558-3.046 6.426-.961 2.031.212 3.67 2.626 3.67h23.205c.371 0 2.632-.4 3.276-1.377 1.545-2.358 6.509-14.447 8.501-19.656.612-1.589-1.512-1.911-1.638-1.911h-79.383c-2.408 0-7.399 10.32-5.734 10.32.546.764 1.001 1.146 1.365 1.146h49.354z"/></defs><g><g transform="translate(-1284 -1255)"><use fill="#c7c7c7" xlink:href="#seeha"/></g></g></svg>