<svg xmlns="http://www.w3.org/2000/svg" xmlns:xlink="http://www.w3.org/1999/xlink" width="22" height="18" viewBox="0 0 22 18"><defs><path id="psvka" d="M1393.824 3055.736c0 .806-.656 1.462-1.462 1.462h-16.631a1.464 1.464 0 0 1-1.462-1.462v-11.362c0-.806.655-1.462 1.462-1.462h16.626c.806 0 1.462.656 1.462 1.462v11.362zm-1.462-14.058h-16.631a2.694 2.694 0 0 0-2.692 2.691v11.367a2.694 2.694 0 0 0 2.692 2.691h16.626a2.694 2.694 0 0 0 2.692-2.691v-11.362a2.69 2.69 0 0 0-2.687-2.696z"/><path id="psvkb" d="M1386.92 3049.911l5.383-4.827a.618.618 0 0 0 .045-.87.618.618 0 0 0-.87-.045l-7.423 6.662-1.448-1.293c-.004-.005-.009-.01-.009-.014a.91.91 0 0 0-.1-.086l-5.893-5.274a.614.614 0 0 0-.87.05.614.614 0 0 0 .05.87l5.447 4.868-5.424 5.078a.617.617 0 0 0 .842.902l5.506-5.15 1.494 1.333a.614.614 0 0 0 .82-.004l1.534-1.375 5.474 5.2a.614.614 0 0 0 .847-.893z"/></defs><g><g transform="translate(-1373 -3041)"><g><use fill="#26d56c" xlink:href="#psvka"/></g><g><use fill="#26d56c" xlink:href="#psvkb"/></g></g></g></svg>