<svg xmlns="http://www.w3.org/2000/svg" xmlns:xlink="http://www.w3.org/1999/xlink" width="61.184" height="59.516" viewBox="0 0 61.184 59.516">
  <defs>
    <clipPath id="clip-path">
      <path id="Path_29" data-name="Path 29" d="M17.967-32.2H32.243V-42.4H17.967Zm2.039-2.039V-37.3H30.2v3.059ZM30.2-40.36v1.02h-10.2v-1.02Z" transform="translate(-17.967 42.4)" fill="#13a34d"/>
    </clipPath>
    <clipPath id="clip-path-2">
      <path id="Path_28" data-name="Path 28" d="M-610,1661.1H915.617V-528H-610Z" transform="translate(610 528)" fill="#13a34d"/>
    </clipPath>
    <clipPath id="clip-path-3">
      <path id="Path_32" data-name="Path 32" d="M17.967-24.433V-12.2H32.243V-24.433Zm6.118,2.039v3.059H20.006v-3.059Zm-4.079,5.1h4.079v3.059H20.006Zm6.118,3.059V-17.3H30.2v3.059Zm4.079-5.1H26.124v-3.059H30.2Z" transform="translate(-17.967 24.433)" fill="#13a34d"/>
    </clipPath>
    <clipPath id="clip-path-5">
      <path id="Path_35" data-name="Path 35" d="M41.067-32.2H55.343V-42.4H41.067Zm2.039-2.039v-1.02H53.3v1.02ZM53.3-40.36V-37.3h-10.2V-40.36Z" transform="translate(-41.067 42.4)" fill="#13a34d"/>
    </clipPath>
    <clipPath id="clip-path-7">
      <path id="Path_38" data-name="Path 38" d="M60.164-26.652a1.019,1.019,0,0,0-1.02,1.02v1.02h-1.02v-1.02a1.019,1.019,0,0,0-1.02-1.02,1.019,1.019,0,0,0-1.02,1.02v1.02h-1.02v-20.6a4.053,4.053,0,0,0,1.658.37,4.066,4.066,0,0,0,2.985-1.309,4.089,4.089,0,0,0,1.078-3.1,4.1,4.1,0,0,0-1.552-2.889L33.367-72.373,30.592-74.95l-2.709,2.521L1.951-52.141A4.089,4.089,0,0,0,.4-49.252a4.089,4.089,0,0,0,1.078,3.1,4.047,4.047,0,0,0,4.643.94v20.6H5.1v-1.02a1.019,1.019,0,0,0-1.02-1.02,1.019,1.019,0,0,0-1.02,1.02v1.02H2.039v-1.02a1.019,1.019,0,0,0-1.02-1.02A1.019,1.019,0,0,0,0-25.631v9.178a1.019,1.019,0,0,0,1.02,1.02,1.019,1.019,0,0,0,1.02-1.02v-1.02h1.02v1.02a1.019,1.019,0,0,0,1.02,1.02,1.019,1.019,0,0,0,1.02-1.02v-1.02h1.02v2.039H55.065v-2.039h1.02v1.02a1.019,1.019,0,0,0,1.02,1.02,1.019,1.019,0,0,0,1.02-1.02v-1.02h1.02v1.02a1.019,1.019,0,0,0,1.02,1.02,1.019,1.019,0,0,0,1.02-1.02v-9.178A1.02,1.02,0,0,0,60.164-26.652ZM2.969-47.543a2.016,2.016,0,0,1-.537-1.548,2.014,2.014,0,0,1,.776-1.444l26-20.344,1.388-1.29,1.452,1.345L57.977-50.535a2.018,2.018,0,0,1,.776,1.444,2.018,2.018,0,0,1-.537,1.548,2.029,2.029,0,0,1-2.739.227l-.411-.316L30.592-66.5,6.516-47.938h0l-.807.621A2.029,2.029,0,0,1,2.969-47.543Zm-.93,28.029v-3.059h1.02v3.059Zm3.059,0v-3.059h1.02v3.059Zm29.572,2.039v-15.3h10.2v15.3Zm18.355,0H46.907V-34.81H32.631v17.335H8.158V-46.629L30.592-63.923,53.026-46.629Zm2.039-2.039v-3.059h1.02v3.059Zm3.059,0v-3.059h1.02v3.059Z" transform="translate(0 74.95)" fill="#13a34d"/>
    </clipPath>
  </defs>
  <g id="home_icon1" transform="translate(0)">
    <g id="Group_29" data-name="Group 29" transform="translate(14.276 25.864)" clip-path="url(#clip-path)">
      <g id="Group_28" data-name="Group 28" transform="translate(-498.977 -385.854)" clip-path="url(#clip-path-2)">
        <path id="Path_27" data-name="Path 27" d="M12.967-47.4H35.189v18.143H12.967Z" transform="translate(482.038 429.281)" fill="#13a34d"/>
      </g>
    </g>
    <g id="Group_31" data-name="Group 31" transform="translate(14.276 40.141)" clip-path="url(#clip-path-3)">
      <g id="Group_30" data-name="Group 30" transform="translate(-498.977 -400.13)" clip-path="url(#clip-path-2)">
        <path id="Path_30" data-name="Path 30" d="M12.967-29.433H35.189V-9.25H12.967Z" transform="translate(482.038 425.59)" fill="#13a34d"/>
      </g>
    </g>
    <g id="Group_33" data-name="Group 33" transform="translate(32.631 25.864)" clip-path="url(#clip-path-5)">
      <g id="Group_32" data-name="Group 32" transform="translate(-517.332 -385.854)" clip-path="url(#clip-path-2)">
        <path id="Path_33" data-name="Path 33" d="M36.067-47.4H58.289v18.143H36.067Z" transform="translate(477.293 429.281)" fill="#13a34d"/>
      </g>
    </g>
    <g id="Group_35" data-name="Group 35" clip-path="url(#clip-path-7)">
      <g id="Group_34" data-name="Group 34" transform="translate(-484.701 -359.99)" clip-path="url(#clip-path-2)">
        <path id="Path_36" data-name="Path 36" d="M-5-79.95H64.13v67.462H-5Z" transform="translate(485.728 435.967)" fill="#13a34d"/>
      </g>
    </g>
  </g>
</svg>
