<svg xmlns="http://www.w3.org/2000/svg" xmlns:xlink="http://www.w3.org/1999/xlink" width="301" height="65" viewBox="0 0 301 65"><defs><path id="5m7ra" d="M495.55 3214.14c1.666 0 3.796-1.643 4.756-3.669l7.393-15.594c.956-2.03-.218-3.669-2.631-3.669h-23.206c-.37 0-2.631.399-3.276 1.376-2.014 3.063-4.357 10.09-5.733 10.09h-25.935c-2.413 0-7.398 10.32-5.733 10.32.546.764 1 1.147 1.365 1.147h53zm-76.063-31.668c-1.671 0-3.8 1.955-4.762 4.368l-7.393 18.564c-.955 2.414.219 4.369 2.632 4.369h23.205c.372 0 2.632-.476 3.277-1.639 2.014-3.647 4.357-12.012 5.733-12.012h25.935c2.413 0 6.59-12.012 6.59-12.83 0-.82-.546-.82-1.092-.82zm64.226-6.006c1.274.364 1.766.825 1.475 1.381-.758 1.416-1.773 3.559-3.047 6.427-.961 2.031.213 3.67 2.626 3.67h23.205c.372 0 2.632-.4 3.276-1.377 1.546-2.359 6.509-14.447 8.502-19.656.611-1.589-1.513-1.911-1.638-1.911h-79.384c-2.408 0-7.399 10.32-5.733 10.32.546.764 1 1.146 1.365 1.146h49.353z"/><path id="5m7rb" d="M587.018 3208.375l1.638-1.53a4.548 4.548 0 0 0 5.81.875 2.686 2.686 0 0 0 1.288-1.879 1.638 1.638 0 0 0-.388-1.42 4.729 4.729 0 0 0-1.354-1.059c-.553-.298-1.1-.618-1.638-.96a3.702 3.702 0 0 1-1.31-1.387 3.09 3.09 0 0 1-.3-2.053 4.783 4.783 0 0 1 2.183-3.276 7.098 7.098 0 0 1 4.025-1.224 5.886 5.886 0 0 1 2.588.514c.59.256 1.122.627 1.567 1.092l-1.502 1.594a3.888 3.888 0 0 0-3.02-1.223 4.56 4.56 0 0 0-2.363.666 2.566 2.566 0 0 0-1.295 1.857c-.095.488.059.99.41 1.343a5.15 5.15 0 0 0 1.376 1.015c.553.292 1.1.612 1.638.961.549.358.996.85 1.3 1.43.331.659.428 1.41.272 2.13a5.105 5.105 0 0 1-2.113 3.276 6.71 6.71 0 0 1-4.106 1.31 6.094 6.094 0 0 1-2.948-.676 5.22 5.22 0 0 1-1.758-1.354zm-11.728 1.507l5.705-15.398h8.955l-.72 1.879h-6.793l-1.78 4.826h5.52l-.699 1.879h-5.504l-1.85 4.957h7.18l-.689 1.857zm-9.916 0l5.007-13.541h-5.28l.677-1.879h12.733l-.677 1.879h-5.307l-4.99 13.54zm-10.833-6.16h4.674l.088-4.87.19-2.184h-.043a35.15 35.15 0 0 1-1.392 2.184zm-7.098 6.16l11.144-15.398h2.403l-.159 15.398h-2.184l.077-4.434h-5.793l-3.15 4.434zm-9.282 0l5.706-15.398h2.124l-5.007 13.541h6.923l-.704 1.857zm-8.55-7.251h3.123c.592.01 1.179-.11 1.72-.35a4.368 4.368 0 0 0 1.709-1.332 4.58 4.58 0 0 0 .906-2.075 1.802 1.802 0 0 0-.36-1.638 2.299 2.299 0 0 0-1.742-.579h-3.172zm-5.1 7.25l5.706-15.397h5.263a4.603 4.603 0 0 1 2.337.503c.544.307.965.793 1.19 1.376.243.656.296 1.367.153 2.053a6.83 6.83 0 0 1-1.507 3.243 7.098 7.098 0 0 1-2.79 2.086 6.58 6.58 0 0 1-2.375.458h-3.735l-2.102 5.679zm164.315-27.453a10.85 10.85 0 0 1 3.855-6.519 10.773 10.773 0 0 1 7.17-2.73 10.374 10.374 0 0 1 3.199.502c.94.272 1.789.793 2.457 1.507l-2.67 2.643a3.964 3.964 0 0 0-1.502-.83 6.29 6.29 0 0 0-2.009-.327 6.077 6.077 0 0 0-4.368 1.638 6.82 6.82 0 0 0-2.119 3.822c-.207 1.194-.025 2.104.546 2.73a3.21 3.21 0 0 0 2.457.939 6.88 6.88 0 0 0 3.582-1.136l.448-1.201h-2.184l1.201-3.276h5.608l-3.276 8.823h-3.19l.165-.436.267-.656a6.24 6.24 0 0 1-4.1 1.354 5.662 5.662 0 0 1-4.412-1.867c-1.117-1.208-1.492-2.868-1.125-4.98zm-18.1 6.618l5.76-15.594h3.713l1.638 7.295c.062.306.12.68.175 1.125.055.444.093.808.115 1.092l.033.436c.344-1.119.611-2.009.857-2.664l2.692-7.295h3.822l-5.76 15.616h-3.692l-1.638-7.273c-.062-.306-.124-.68-.185-1.125a18.495 18.495 0 0 1-.126-1.092l-.033-.436c-.327 1.119-.59 2.009-.835 2.664l-2.692 7.273zm-7.142 0l5.76-15.616h3.823l-5.76 15.616zm-19.721 0l6.896-15.616h4.171l-.125 6.596-.186 2.577c.732-1.032 1.321-1.894 1.802-2.577l4.712-6.596h4.193l-4.494 15.616h-3.756l2.118-7.01.961-2.621c-.791 1.092-1.403 1.982-1.878 2.62l-3.325 4.521h-3.32v-4.52l.137-2.665c-.35.988-.672 1.878-1.01 2.664l-3.063 7.033zm-6.744-8.54h1.638c.67.01 1.323-.214 1.846-.633a2.774 2.774 0 0 0 1-1.769c.103-.365.01-.758-.247-1.037a1.513 1.513 0 0 0-1.092-.36h-1.725zm-6.972 8.54l5.76-15.616h5.81a5.64 5.64 0 0 1 2.227.372c1.456.626 2.026 1.82 1.71 3.581a7.644 7.644 0 0 1-1.355 3.113 5.925 5.925 0 0 1-2.822 2.184c.091.323.166.651.223.982l1.092 5.395h-4.106l-.83-5.264h-1.921l-1.944 5.264zm-7.977-6.334h3.08l.223-3.035.339-2.687h-.044c-.619 1.136-1.147 2.031-1.583 2.687zm-8.25 6.334l10.849-15.616h4.368l-.546 15.616h-3.822l.245-3.276h-4.87l-2.146 3.276zm-16.861 0l1.72-15.616h3.997l-1.464 9.763-.327 1.638c.224-.453.507-1 .895-1.638l6.006-9.763h3.167l-1.245 9.763-.327 1.638c.234-.508.496-1.054.83-1.638l5.569-9.74h4.171l-9.582 15.615h-4.417l.96-7.884c.078-.62.2-1.233.366-1.835-.3.546-.633 1.163-1.042 1.835l-4.87 7.884zm-16.331-6.552a4.204 4.204 0 0 0 .693 3.484 3.74 3.74 0 0 0 3.118 1.343c1.776 0 3.507-.728 5.192-2.184a8.6 8.6 0 0 0 3.047-5.122 4.019 4.019 0 0 0-.71-3.385 3.822 3.822 0 0 0-3.123-1.31 7.977 7.977 0 0 0-5.198 2.129 8.392 8.392 0 0 0-3.025 5.067zm-2.222.087a10.15 10.15 0 0 1 2.107-4.564 12.716 12.716 0 0 1 4.035-3.396 9.828 9.828 0 0 1 4.663-1.256c2.039 0 3.584.611 4.636 1.834s1.416 2.796 1.092 4.718a10.494 10.494 0 0 1-2.135 4.663 12.772 12.772 0 0 1-4.073 3.461 9.735 9.735 0 0 1-4.62 1.289c-2.053 0-3.6-.63-4.64-1.89-1.042-1.259-1.397-2.878-1.065-4.859zm-15.256.066a10.528 10.528 0 0 1 2.075-4.62 12.182 12.182 0 0 1 3.97-3.395 9.872 9.872 0 0 1 4.706-1.245 8.965 8.965 0 0 1 3.014.502c.868.285 1.63.825 2.184 1.55l-1.54 1.508c-.906-1.063-2.226-1.595-3.958-1.595a7.759 7.759 0 0 0-5.291 2.184 8.654 8.654 0 0 0-2.91 5.024 4.286 4.286 0 0 0 .655 3.45c.68.903 1.749 1.354 3.205 1.354a9.326 9.326 0 0 0 5.46-1.987l.655 1.682a10.871 10.871 0 0 1-3.101 1.638 10.522 10.522 0 0 1-3.45.633c-2.083 0-3.632-.619-4.647-1.856-1.016-1.238-1.358-2.847-1.027-4.827zm-13.546 6.42l5.706-15.418h8.954l-.72 1.878h-6.793l-1.78 4.827h5.526l-.7 1.878h-5.509l-1.845 4.958h7.164l-.677 1.878zm-13.28-1.877h2.818a7.862 7.862 0 0 0 5.417-2.119 8.922 8.922 0 0 0 2.904-5.241c.24-1.384.004-2.447-.71-3.19-.713-.742-1.805-1.106-3.275-1.091h-2.796zm-2.817 1.878l5.684-15.42h4.74c2.126 0 3.703.529 4.734 1.584 1.03 1.056 1.381 2.53 1.053 4.423a11.362 11.362 0 0 1-3.745 6.683 10.238 10.238 0 0 1-7.027 2.73z"/></defs><g><g transform="translate(-405 -3173)"><g><g><text fill="#b8b8b8" style="line-height:21px;font-kerning:normal" dominant-baseline="text-before-edge" font-family="'Museo Sans Cyrillic','MuseoSansCyrillic-500'" font-size="14" letter-spacing="1.68" transform="translate(405 3222)"><tspan>Фасадные панели нового поколения</tspan></text></g></g><g><g><g><use fill="#13a34d" xlink:href="#5m7ra"/></g></g><g><use fill="#fff" xlink:href="#5m7rb"/></g></g></g></g></svg>