<svg xmlns="http://www.w3.org/2000/svg" viewBox="0 0 11.32 14.882"><defs><style>.a{fill:#fff;}</style></defs><g transform="translate(0)"><path class="a" d="M107.531,7.278c1.655,0,3-1.629,3-3.639s-.44-3.639-3-3.639-3,1.629-3,3.639S105.877,7.278,107.531,7.278Z" transform="translate(-101.871)"/><path class="a" d="M41.9,300.435c0-.123,0-.035,0,0Z" transform="translate(-41.895 -287.6)"/><path class="a" d="M308.085,301.6c0-.034,0-.233,0,0Z" transform="translate(-296.766 -288.667)"/><path class="a" d="M53.22,182.87c-.055-3.5-.513-4.5-4.012-5.13a2.458,2.458,0,0,1-3.281,0c-3.461.625-3.946,1.608-4.01,5.017-.005.278-.008.293-.009.261,0,.061,0,.173,0,.368,0,0,.833,1.679,5.659,1.679s5.659-1.679,5.659-1.679c0-.125,0-.213,0-.272A2.255,2.255,0,0,1,53.22,182.87Z" transform="translate(-41.907 -170.182)"/></g></svg>