<svg aria-hidden="true" style="position: absolute; width: 0; height: 0; overflow: hidden;" version="1.1" xmlns="http://www.w3.org/2000/svg" xmlns:xlink="http://www.w3.org/1999/xlink">
<defs>
<symbol id="icon-home_icon4" viewBox="0 0 32 32">
<title>home_icon4</title>
<path fill="#c7c7c7" style="fill: var(--color1, #c7c7c7)" d="M24.48 6.586c0.344-0.001 0.622-0.28 0.622-0.624s-0.279-0.624-0.624-0.624-0.624 0.279-0.624 0.624c0 0.172 0.070 0.328 0.183 0.441v0c0.114 0.113 0.27 0.183 0.443 0.183h0z"></path>
<path fill="#c7c7c7" style="fill: var(--color1, #c7c7c7)" d="M31.669 12.057l-5.125-2.733c-0.085-0.046-0.186-0.073-0.294-0.073-0.345 0-0.625 0.28-0.625 0.624v1.691l-4.206-2.243c-0.085-0.046-0.186-0.073-0.294-0.073-0.345 0-0.625 0.28-0.625 0.625v0 1.691l-4.206-2.243c-0.085-0.046-0.186-0.073-0.293-0.073-0.345 0-0.625 0.28-0.625 0.625v6.876h-9.623v-6.875c0-0 0-0 0-0.001 0-0.345-0.28-0.625-0.625-0.625-0 0-0 0-0.001 0h-0.898v-0.886c0-0.15 0.121-0.271 0.271-0.271h0c0.005 0 0.011 0 0.018 0 0.345 0 0.625-0.28 0.625-0.625s-0.28-0.625-0.625-0.625c-0.006 0-0.012 0-0.019 0l0.001-0c-0.84 0.001-1.52 0.681-1.522 1.521v0.887h-1.103v-2.94c0.001-1.192 0.967-2.157 2.158-2.159h1.008c-0.037 0.157-0.058 0.338-0.058 0.523v0c0.002 1.318 1.070 2.386 2.387 2.388h2.36c0.338-0.010 0.607-0.286 0.607-0.625s-0.27-0.615-0.607-0.625l-0.001-0h-2.358c-0.628-0.001-1.137-0.51-1.138-1.138v-0c0.002-0.333 0.139-0.634 0.359-0.851l0-0c0.201-0.201 0.479-0.325 0.786-0.325 0.005 0 0.010 0 0.015 0h-0.001c0.172 0.003 0.334 0.044 0.478 0.115l-0.007-0.003c0.080 0.040 0.174 0.063 0.273 0.063 0.265 0 0.491-0.165 0.582-0.397l0.001-0.004c0.468-1.193 1.609-2.022 2.944-2.022 1.33 0 2.467 0.823 2.931 1.988l0.007 0.021c-0.514 0.285-0.927 0.697-1.206 1.194l-0.008 0.015c-0.049 0.087-0.078 0.191-0.078 0.302 0 0.345 0.28 0.625 0.625 0.625 0.234 0 0.438-0.129 0.545-0.319l0.002-0.003c0.319-0.57 0.919-0.949 1.608-0.949 1.014 0 1.836 0.822 1.836 1.836v0c0 0 0 0 0 0 0 0.345 0.28 0.625 0.625 0.625 0 0 0 0 0.001 0h3.408c0.338-0.010 0.607-0.286 0.607-0.625s-0.27-0.615-0.607-0.625l-0.001-0h-2.848c-0.302-1.414-1.54-2.459-3.023-2.461h-0q-0.146 0-0.291 0.014c-0.635-1.701-2.246-2.891-4.135-2.891-1.655 0-3.097 0.914-3.849 2.264l-0.011 0.022c-0.114-0.022-0.247-0.036-0.383-0.038l-0.002-0c-0.014-0-0.030-0-0.046-0-0.63 0-1.202 0.249-1.623 0.653l0.001-0.001h-1.717c-1.882 0.002-3.406 1.527-3.409 3.409v2.945c-0.345 0-0.625 0.28-0.625 0.625v21.501c0 0 0 0 0 0 0 0.345 0.28 0.625 0.625 0.625 0 0 0 0 0.001 0h30.75c0 0 0 0 0 0 0.345 0 0.625-0.28 0.625-0.625 0-0 0-0 0-0.001v0-18.767c-0-0.238-0.133-0.444-0.328-0.55l-0.003-0.002zM1.25 12.998h3.25v15.252h-3.25zM4.5 11.748h-3.25v-1.248h3.25zM1.25 29.5h3.25v1.25h-3.25zM16 30.75h-10.25v-10.25h5.625c0.005 0 0.011 0 0.018 0 0.345 0 0.625-0.28 0.625-0.625s-0.28-0.625-0.625-0.625c-0.006 0-0.012 0-0.019 0l0.001-0h-5.625v-1.25h18.75v12.75zM30.75 30.75h-5v-13.375c0-0 0-0 0-0 0-0.345-0.28-0.625-0.625-0.625-0 0-0 0-0.001 0h-8.499v-5.833l4.206 2.243c0.085 0.046 0.186 0.073 0.294 0.073 0.345 0 0.625-0.28 0.625-0.625v0-1.691l4.206 2.242c0.085 0.046 0.186 0.074 0.294 0.074 0.345 0 0.625-0.28 0.625-0.625 0-0 0-0 0-0.001v0-1.691l3.875 2.066z"></path>
<path fill="#c7c7c7" style="fill: var(--color1, #c7c7c7)" d="M10.627 22.25h-3c-0.001 0-0.002 0-0.003 0-0.345 0-0.625 0.28-0.625 0.625 0 0 0 0 0 0.001v-0 3.002c0 0 0 0 0 0 0 0.345 0.28 0.625 0.625 0.625 0 0 0 0 0.001 0h3.002c0 0 0 0 0.001 0 0.345 0 0.625-0.28 0.625-0.625 0-0 0-0 0-0.001v0-3c0-0.001 0-0.002 0-0.003 0-0.345-0.28-0.625-0.625-0.625-0 0-0 0-0.001 0h0zM10.002 25.25h-1.75v-1.75h1.75z"></path>
<path fill="#c7c7c7" style="fill: var(--color1, #c7c7c7)" d="M16.627 22.25h-3c-0.001 0-0.002 0-0.003 0-0.345 0-0.625 0.28-0.625 0.625 0 0 0 0 0 0.001v-0 3.002c0 0 0 0 0 0 0 0.345 0.28 0.625 0.625 0.625 0 0 0 0 0.001 0h3.002c0 0 0 0 0 0 0.345 0 0.625-0.28 0.625-0.625 0-0 0-0 0-0.001v0-3c0-0.001 0-0.002 0-0.003 0-0.345-0.28-0.625-0.625-0.625-0 0-0 0-0.001 0h0zM16.002 25.25h-1.75v-1.75h1.75z"></path>
<path fill="#c7c7c7" style="fill: var(--color1, #c7c7c7)" d="M22.628 22.25h-3c-0.001 0-0.002 0-0.003 0-0.345 0-0.625 0.28-0.625 0.625 0 0 0 0 0 0.001v-0 3.002c0 0 0 0 0 0 0 0.345 0.28 0.625 0.625 0.625 0 0 0 0 0.001 0h3.002c0 0 0 0 0 0 0.345 0 0.625-0.28 0.625-0.625 0-0 0-0 0-0.001v0-3c0-0.001 0-0.002 0-0.003 0-0.345-0.28-0.625-0.625-0.625-0 0-0 0-0.001 0h0zM22.002 25.25h-1.75v-1.75h1.75z"></path>
<path fill="#c7c7c7" style="fill: var(--color1, #c7c7c7)" d="M13.698 20.5c0 0 0 0 0 0 0.345 0 0.625-0.28 0.625-0.625s-0.28-0.625-0.625-0.625c-0.345 0-0.625 0.28-0.625 0.625 0 0.173 0.070 0.329 0.183 0.442v0c0.113 0.113 0.269 0.182 0.442 0.183h0z"></path>
</symbol>
<symbol id="icon-home_icon3" viewBox="0 0 32 32">
<title>home_icon3</title>
<path fill="#c0c0c0" style="fill: var(--color2, #c0c0c0)" opacity="0.672" d="M5.32 27.433h19.897v6.208h-19.897z"></path>
<path fill="#c0c0c0" style="fill: var(--color2, #c0c0c0)" opacity="0.672" d="M9.531 7.425h7.262v8.315h-7.262z"></path>
<path fill="#c0c0c0" style="fill: var(--color2, #c0c0c0)" opacity="0.672" d="M-2.051 4.267h11.473v15.686h-11.473z"></path>
<path fill="#c0c0c0" style="fill: var(--color2, #c0c0c0)" opacity="0.672" d="M23.22 20.062h7.262v8.315h-7.262z"></path>
<path fill="#c0c0c0" style="fill: var(--color2, #c0c0c0)" opacity="0.672" d="M-2.051 16.903h9.367v16.738h-9.367z"></path>
<path fill="#c0c0c0" style="fill: var(--color2, #c0c0c0)" opacity="0.672" d="M1.108 13.744h7.262v8.315h-7.262z"></path>
<path fill="#c0c0c0" style="fill: var(--color2, #c0c0c0)" opacity="0.672" d="M23.22 7.425h7.262v8.315h-7.262z"></path>
<path fill="#c0c0c0" style="fill: var(--color2, #c0c0c0)" opacity="0.672" d="M1.108 7.425h7.262v8.315h-7.262z"></path>
<path fill="#c0c0c0" style="fill: var(--color2, #c0c0c0)" opacity="0.672" d="M14.797 7.425h7.261v8.315h-7.261z"></path>
<path fill="#c0c0c0" style="fill: var(--color2, #c0c0c0)" opacity="0.672" d="M22.168 4.267h11.474v29.375h-11.474z"></path>
<path fill="#c0c0c0" style="fill: var(--color2, #c0c0c0)" opacity="0.672" d="M14.797 1.108h7.261v8.315h-7.261z"></path>
<path fill="#c0c0c0" style="fill: var(--color2, #c0c0c0)" opacity="0.672" d="M14.797 13.744h7.261v8.315h-7.261z"></path>
<path fill="#c0c0c0" style="fill: var(--color2, #c0c0c0)" opacity="0.672" d="M9.531 1.108h7.262v8.315h-7.262z"></path>
<path fill="#c0c0c0" style="fill: var(--color2, #c0c0c0)" opacity="0.672" d="M13.217 23.227h5.156v5.149h-5.156z"></path>
<path fill="#c0c0c0" style="fill: var(--color2, #c0c0c0)" opacity="0.672" d="M9.531 13.744h7.262v8.315h-7.262z"></path>
<path fill="#c0c0c0" style="fill: var(--color2, #c0c0c0)" opacity="0.672" d="M8.479 20.062h14.632v10.42h-14.632z"></path>
<path fill="#c0c0c0" style="fill: var(--color2, #c0c0c0)" opacity="0.672" d="M23.22 13.744h7.262v8.315h-7.262z"></path>
<path fill="#c0c0c0" style="fill: var(--color2, #c0c0c0)" opacity="0.672" d="M6.373-2.051h18.845v32.533h-18.845z"></path>
</symbol>
<symbol id="icon-home_icon2" viewBox="0 0 32 32">
<title>home_icon2</title>
<path fill="#c7c7c7" style="fill: var(--color1, #c7c7c7)" opacity="0.672" d="M9.655 13.714h7.356v8.367h-7.356z"></path>
<path fill="#c7c7c7" style="fill: var(--color1, #c7c7c7)" opacity="0.672" d="M9.655 7.398h7.356v8.367h-7.356z"></path>
<path fill="#c7c7c7" style="fill: var(--color1, #c7c7c7)" opacity="0.672" d="M5.389-2.078h21.224v14.157h-21.224z"></path>
<path fill="#c7c7c7" style="fill: var(--color1, #c7c7c7)" opacity="0.672" d="M1.122 13.714h7.356v8.367h-7.356z"></path>
<path fill="#c7c7c7" style="fill: var(--color1, #c7c7c7)" opacity="0.672" d="M6.455 8.977h5.223v20.475h-5.223z"></path>
<path fill="#c7c7c7" style="fill: var(--color1, #c7c7c7)" opacity="0.672" d="M4.322 20.031h23.357v11.526h-23.357z"></path>
<path fill="#c7c7c7" style="fill: var(--color1, #c7c7c7)" opacity="0.672" d="M23.522 20.558h7.356v8.367h-7.356z"></path>
<path fill="#c7c7c7" style="fill: var(--color1, #c7c7c7)" opacity="0.672" d="M23.522 14.241h7.356v8.367h-7.356z"></path>
<path fill="#c7c7c7" style="fill: var(--color1, #c7c7c7)" opacity="0.672" d="M2.189 28.454h27.622v5.209h-27.622z"></path>
<path fill="#c7c7c7" style="fill: var(--color1, #c7c7c7)" opacity="0.672" d="M22.456 9.503h11.623v24.159h-11.623z"></path>
<path fill="#c7c7c7" style="fill: var(--color1, #c7c7c7)" opacity="0.672" d="M14.989 13.714h7.355v8.367h-7.355z"></path>
<path fill="#c7c7c7" style="fill: var(--color1, #c7c7c7)" opacity="0.672" d="M-2.078 16.873h9.489v16.79h-9.489z"></path>
<path fill="#c7c7c7" style="fill: var(--color1, #c7c7c7)" opacity="0.672" d="M20.322 8.45h5.223v21.001h-5.223z"></path>
<path fill="#c7c7c7" style="fill: var(--color1, #c7c7c7)" opacity="0.672" d="M14.989 7.398h7.355v8.367h-7.355z"></path>
<path fill="#c7c7c7" style="fill: var(--color1, #c7c7c7)" opacity="0.672" d="M-2.078 9.503h11.623v10.999h-11.623z"></path>
</symbol>
<symbol id="icon-home_icon1" viewBox="0 0 33 32">
<title>home_icon1</title>
<path fill="#13a34d" style="fill: var(--color3, #13a34d)" d="M5.54 11.77h11.948v9.755h-11.948z"></path>
<path fill="#13a34d" style="fill: var(--color3, #13a34d)" d="M5.54 19.446h11.948v10.852h-11.948z"></path>
<path fill="#13a34d" style="fill: var(--color3, #13a34d)" d="M15.409 11.77h11.948v9.755h-11.948z"></path>
<path fill="#13a34d" style="fill: var(--color3, #13a34d)" d="M-2.136-2.136h37.169v36.272h-37.169z"></path>
</symbol>
</defs>
</svg>
